<svg width="40" height="41" viewBox="0 0 40 41" fill="none" xmlns="http://www.w3.org/2000/svg">
  <ellipse cx="20" cy="20.5" rx="20.5" ry="20" transform="rotate(90 20 20.5)" fill="white"/>
  <path d="M9.95439 20.7516H14.5088L14.5088 19.1846H9.95439L12.2316 17.1586L10.9864 16.0508L6.58349 19.9681L10.9864 23.8854L12.2316 22.7776L9.95439 20.7516Z" fill="black"/>
  <path d="M23.3132 30.937L23.3132 9L16.2685 9L16.2685 30.937H23.3132ZM18.0297 29.3701L18.0297 10.5669L21.5521 10.5669L21.5521 29.3701H18.0297Z" fill="black"/>
  <path d="M29.6291 19.1846H25.0747V20.7516H29.6291L27.3519 22.7776L28.5971 23.8854L33 19.9681L28.5971 16.0508L27.3519 17.1586L29.6291 19.1846Z" fill="black"/>
</svg>
